<svg width="25" height="26" viewBox="0 0 25 26" fill="none" xmlns="http://www.w3.org/2000/svg">
<g clip-path="url(#clip0_2146_126)">
<path d="M11.7418 25.4994C12.215 25.4885 12.6691 25.3106 13.0238 24.9972C13.3785 24.6838 13.6109 24.255 13.6799 23.7867H9.7287C9.79966 24.2677 10.0429 24.7066 10.4132 25.0216C10.7836 25.3366 11.2557 25.5064 11.7418 25.4994V25.4994Z" fill="#3692EB"/>
<path d="M22.8967 20.8797L22.6413 20.6544C21.9167 20.0088 21.2826 19.2685 20.7559 18.4534C20.1806 17.3286 19.8359 16.1002 19.7418 14.8403V11.1295C19.7387 10.6787 19.6985 10.229 19.6216 9.78487C18.3492 9.52334 17.2063 8.83014 16.3863 7.82264C15.5663 6.81514 15.1197 5.55523 15.1221 4.25623V3.78299C14.3378 3.39703 13.4951 3.14322 12.6282 3.03182V2.08534C12.6282 1.81937 12.5225 1.5643 12.3344 1.37624C12.1464 1.18817 11.8913 1.08252 11.6253 1.08252C11.3594 1.08252 11.1043 1.18817 10.9162 1.37624C10.7282 1.5643 10.6225 1.81937 10.6225 2.08534V3.06938C8.68128 3.34322 6.90464 4.31012 5.62062 5.79158C4.3366 7.27304 3.63189 9.16901 3.6366 11.1295V14.8403C3.54252 16.1002 3.19775 17.3286 2.62252 18.4534C2.10487 19.2665 1.48088 20.0067 0.767118 20.6544L0.511719 20.8797V22.998H22.8967V20.8797Z" fill="#3692EB"/>
<path d="M20.7559 8.01211C22.8302 8.01211 24.5117 6.33055 24.5117 4.25624C24.5117 2.18193 22.8302 0.500366 20.7559 0.500366C18.6816 0.500366 17 2.18193 17 4.25624C17 6.33055 18.6816 8.01211 20.7559 8.01211Z" fill="#FF4588"/>
</g>
<defs>
<clipPath id="clip0_2146_126">
<rect width="24" height="24.9993" fill="white" transform="translate(0.511719 0.500366)"/>
</clipPath>
</defs>
</svg>
