<svg width="26" height="28" viewBox="0 0 26 28" fill="none" xmlns="http://www.w3.org/2000/svg">
<path d="M21 3.5H3C1.34062 3.5 0 4.84062 0 6.5V18.5C0 20.1594 1.34062 21.5 3 21.5H9L6.99844 27.5L15.9984 21.5H21C22.6594 21.5 24 20.1594 24 18.5V6.5C24 4.84062 22.6594 3.5 21 3.5Z" fill="#3692EB"/>
<path d="M21.7559 8.01174C23.8302 8.01174 25.5117 6.33018 25.5117 4.25587C25.5117 2.18156 23.8302 0.5 21.7559 0.5C19.6816 0.5 18 2.18156 18 4.25587C18 6.33018 19.6816 8.01174 21.7559 8.01174Z" fill="#FF4588"/>
</svg>
