<svg width="16" height="18" viewBox="0 0 16 18" fill="none" xmlns="http://www.w3.org/2000/svg">
<path fill-rule="evenodd" clip-rule="evenodd" d="M4 4V5H2.66704C1.7593 5 1.00225 5.69407 0.923617 6.5984L0.0975303 16.0984C0.00862034 17.1209 0.814627 18 1.84095 18H14.1595C15.1858 18 15.9918 17.1209 15.9029 16.0984L15.0768 6.5984C14.9982 5.69407 14.2411 5 13.3334 5H12V4C12 1.79086 10.2091 0 8 0C5.79086 0 4 1.79086 4 4ZM8 1.5C6.61929 1.5 5.5 2.61929 5.5 4V5H10.5V4C10.5 2.61929 9.38071 1.5 8 1.5ZM5.5 9C5.5 10.3807 6.61929 11.5 8 11.5C9.38071 11.5 10.5 10.3807 10.5 9V7.75C10.5 7.33579 10.8358 7 11.25 7C11.6642 7 12 7.33579 12 7.75V9C12 11.2091 10.2091 13 8 13C5.79086 13 4 11.2091 4 9V7.75C4 7.33579 4.33579 7 4.75 7C5.16421 7 5.5 7.33579 5.5 7.75V9Z" fill="#0F172A"/>
</svg>
