<svg width="20" height="20" viewBox="0 0 20 20" fill="none" xmlns="http://www.w3.org/2000/svg">
<path fill-rule="evenodd" clip-rule="evenodd" d="M9.0779 0.25C8.16132 0.25 7.37909 0.91265 7.22841 1.81675L7.04974 2.88873C7.02959 3.00964 6.93542 3.1498 6.75311 3.23747C6.40905 3.40292 6.07967 3.5938 5.7674 3.8076C5.60091 3.92159 5.43259 3.9332 5.31769 3.89015L4.29851 3.50833C3.44019 3.18678 2.4752 3.53289 2.01692 4.32666L1.09493 5.92358C0.636648 6.71736 0.819403 7.72611 1.52704 8.30866L2.36756 9.00061C2.46219 9.07851 2.53629 9.22982 2.52119 9.43072C2.50706 9.61876 2.49988 9.80861 2.49988 10C2.49988 10.1915 2.50707 10.3814 2.52121 10.5695C2.53632 10.7704 2.46221 10.9217 2.36758 10.9996L1.52704 11.6916C0.819403 12.2741 0.636648 13.2829 1.09493 14.0767L2.01692 15.6736C2.4752 16.4674 3.44019 16.8135 4.29851 16.4919L5.31791 16.11C5.43281 16.067 5.60113 16.0786 5.76761 16.1925C6.07982 16.4063 6.40913 16.5971 6.75311 16.7625C6.93542 16.8502 7.02959 16.9904 7.04974 17.1113L7.22841 18.1832C7.37909 19.0874 8.16132 19.75 9.0779 19.75H10.9219C11.8384 19.75 12.6207 19.0874 12.7713 18.1832L12.95 17.1113C12.9702 16.9904 13.0643 16.8502 13.2466 16.7625C13.5907 16.5971 13.9201 16.4062 14.2324 16.1924C14.3988 16.0784 14.5672 16.0668 14.6821 16.1098L15.7012 16.4917C16.5596 16.8132 17.5246 16.4671 17.9828 15.6733L18.9048 14.0764C19.3631 13.2826 19.1804 12.2739 18.4727 11.6913L17.6322 10.9994C17.5376 10.9215 17.4635 10.7702 17.4786 10.5693C17.4927 10.3812 17.4999 10.1914 17.4999 10C17.4999 9.80854 17.4927 9.61862 17.4785 9.43051C17.4634 9.22961 17.5375 9.07828 17.6322 9.00038L18.4727 8.30842C19.1804 7.72587 19.3631 6.71711 18.9048 5.92334L17.9828 4.32642C17.5246 3.53264 16.5596 3.18654 15.7012 3.50809L14.6818 3.89C14.5669 3.93304 14.3986 3.92144 14.2321 3.80746C13.9199 3.59371 13.5906 3.40289 13.2466 3.23747C13.0643 3.1498 12.9702 3.00964 12.95 2.88873L12.7713 1.81675C12.6207 0.912648 11.8384 0.25 10.9219 0.25H9.0779ZM10 13.75C12.0711 13.75 13.75 12.0711 13.75 10C13.75 7.92893 12.0711 6.25 10 6.25C7.92893 6.25 6.25 7.92893 6.25 10C6.25 12.0711 7.92893 13.75 10 13.75Z" fill="#0F172A"/>
</svg>
